<svg viewBox="0 0 193.76 42.44" xmlns="http://www.w3.org/2000/svg">
  <g transform="translate(-8.2,-127.53)">
    <g transform="matrix(0.26458333,0,0,0.26458333,-24.18,95.8)">
      <!-- L -->
      <path d="m 122.4,218.07 v -62.59 h 14.11 v 50.69 h 27.84 v 11.9 z"/>
      <!-- a -->
      <path d="m 191.19,219.22 q -3.65,0 -6.53,-1.15 -2.88,-1.06 -4.9,-2.98 -2.02,-2.02 -3.17,-4.61 -1.06,-2.59 -1.06,-5.66 0,-4.03 1.73,-7.01 1.73,-3.07 5.47,-5.18 3.84,-2.11 9.79,-3.36 5.95,-1.34 14.4,-1.82 -0.38,-3.26 -2.88,-5.09 -2.4,-1.82 -7.3,-1.82 -3.46,0 -7.01,1.25 -3.46,1.15 -7.49,3.17 l -4.99,-9.22 q 4.9,-2.78 10.46,-4.61 5.66,-1.82 11.81,-1.82 9.98,0 15.74,5.28 5.76,5.28 5.76,16.22 v 27.26 h -11.52 l -1.06,-5.38 h -0.38 q -3.65,2.78 -7.97,4.7 -4.32,1.82 -8.93,1.82 z m 4.51,-10.94 q 3.17,0 5.95,-1.25 2.78,-1.34 5.28,-3.26 v -7.87 q -5.28,0.29 -8.74,0.96 -3.46,0.67 -5.47,1.73 -2.02,0.96 -2.88,2.3 -0.77,1.34 -0.77,2.88 0,2.3 1.73,3.46 1.82,1.06 4.9,1.06 z"/>
      <!-- n -->
      <path d="m 234.16,218.07 v -47.62 h 11.52 l 1.06,6.34 h 0.38 q 3.07,-3.07 7.01,-5.28 4.03,-2.21 9.41,-2.21 8.06,0 11.81,5.18 3.74,5.18 3.74,14.21 v 29.38 h -14.11 v -27.55 q 0,-4.8 -1.54,-7.01 -1.54,-2.21 -5.47,-2.21 -2.88,0 -5.09,1.25 -2.11,1.25 -4.61,3.74 v 31.78 z"/>
      <!-- d -->
      <path d="m 321.39079,150.77463 v 16.22461 l 0.67188,7.39063 h -0.38477 c -1.6,-1.664 -3.32759,-2.91214 -5.18359,-3.74414 -1.856,-0.896 -4.12841,-1.34375 -6.81641,-1.34375 -2.624,0 -5.15198,0.57651 -7.58398,1.72851 -2.432,1.152 -4.60735,2.81619 -6.52735,4.99219 -1.856,2.112 -3.35972,4.70339 -4.51172,7.77539 -1.152,3.072 -1.72851,6.56084 -1.72851,10.46484 0,3.904 0.47945,7.39089 1.43945,10.46289 0.96,3.072 2.3052,5.69705 4.0332,7.87305 1.792,2.112 3.90394,3.74253 6.33594,4.89453 2.496,1.152 5.24786,1.72852 8.25586,1.72852 2.432,0 4.79952,-0.57652 7.10352,-1.72852 2.304,-1.152 4.35253,-2.59036 6.14453,-4.31836 h 0.28711 l 0.25195,4.78125 c -1.78102,0.45672 -1.43531,0.33904 -0.0176,0.0781 0.007,-0.01 0.0144,-0.0194 0.0215,-0.0293 v 0.0254 c -0.008,0.001 -0.014,0.003 -0.0215,0.004 -5.24605,7.29513 -6.56375,2.392 -11.75195,8.36523 l 6.51562,-1.02929 c -10.02961,16.10793 -36.12831,29.74864 -15.51367,20.1875 5.31289,-3.16853 12.98991,-14.28851 12.67383,-10.40625 -1.00658,4.00985 -2.96892,7.65074 -5.06055,11.17968 -1.59054,3.43166 -4.62398,5.74568 -7.37109,8.11914 4.40706,0.0627 5.6896,-1.13071 8.35937,-4.28125 1.68527,-1.58528 2.31305,-5.20434 4.14258,-5.91992 0.86989,4.56318 -1.76521,8.82836 -2.27539,13.19141 -2.5635,9.87942 -6.55565,14.44084 -5.00586,13.56641 3.67406,-2.073 5.63282,-10.50933 9.26953,-15.69336 0.95533,-1.36181 1.27805,7.50501 1.86914,5.90234 0.69479,-1.88383 0.93153,-12.50193 1.09961,-14.03906 0.55463,-3.61599 0.79312,-5.3582 2.22461,-8.30078 1.51658,2.86204 3.53198,3.39041 4.35547,6.60546 0.71607,4.42447 1.26804,8.90516 2.00586,13.31836 0.0151,1.67592 0.89636,7.26125 1.77735,6.43164 0.91676,-4.87067 0.43431,-9.84275 0.55078,-14.77148 1.88144,-1.31323 4.29227,5.03211 3.76172,0.66797 -1.29241,-3.76377 -4.42608,-6.74273 -4.57422,-11.06836 -0.87002,-2.72307 0.56811,-8.05808 3.41211,-3.8125 3.08809,4.4253 4.84189,9.62867 6.89257,14.62305 1.26832,3.33018 1.74329,6.87682 3.04493,10.16992 0.70823,3.17609 0.92006,6.42512 1.56054,9.62109 0.68136,4.05135 0.67245,5.63716 1.38282,9.67188 1.77032,-4.17472 0.9079,-9.87825 0.51953,-14.4336 0.1426,-2.71426 0.003,-2.71603 0.28906,-4.95703 2.13552,2.85823 3.32738,6.2454 5.05273,9.35742 1.35292,-1.06941 -0.57196,-6.39694 -1.63086,-8.85156 -2.04475,-3.49716 -3.99294,-7.07653 -5.66211,-10.78515 -2.52292,-3.33784 -1.86921,-8.11206 -2.54101,-12.28907 1.7756,1.2001 6.24068,4.24673 7.88281,6.14453 1.33235,2.61786 2.35838,5.6279 3.66406,8.10157 0.22213,-2.33594 0.0344,-4.72027 0.0957,-7.07813 3.11798,2.67379 4.60629,6.87796 7.49023,9.81836 1.26311,1.49462 3.87503,6.70812 3.23438,1.7832 -0.99374,-4.05025 -2.82571,-7.97339 -4.83203,-11.60937 -3.77631,-5.78449 -11.91407,-9.86499 -13.0879,-11.71484 -2.18377,-3.44142 -4.524,-5.67063 -1.02148,-4.63477 1.62369,0.48023 6.04403,4.60719 9.54102,4.33594 -3.89263,-1.5224 -6.48015,-5.43496 -9.8086,-7.79297 -1.50521,-1.40081 -3.07967,-2.68228 -4.68164,-3.90821 -1.68102,-1.28643 -3.39272,-2.51194 -5.09375,-3.75 -0.13117,-0.0678 -0.27007,-0.13094 -0.41406,-0.18945 V 150.7747 Z m -7.96875,30.04688 c 1.408,0 2.7532,0.25753 4.0332,0.76953 1.344,0.448 2.65555,1.24644 3.93555,2.39844 v 19.29687 c -1.28,1.6 -2.59155,2.75108 -3.93555,3.45508 -1.344,0.64 -2.81601,0.96094 -4.41601,0.96094 -2.944,0 -5.21641,-1.08767 -6.81641,-3.26367 -1.6,-2.176 -2.40039,-5.63315 -2.40039,-10.36915 0,-4.48 0.9272,-7.80642 2.7832,-9.98242 1.92,-2.176 4.19241,-3.26562 6.81641,-3.26562 z"/>
      <!-- & -->
      <path d="m 422.21,219.22 q -4.9,0 -8.64,-1.44 -3.74,-1.44 -6.34,-3.84 -2.5,-2.5 -3.84,-5.66 -1.25,-3.26 -1.25,-6.91 0,-3.07 0.77,-5.57 0.86,-2.59 2.21,-4.61 1.44,-2.11 3.26,-3.84 1.82,-1.73 3.84,-3.17 -1.92,-3.65 -2.98,-7.01 -1.06,-3.46 -1.06,-6.43 0,-3.36 1.06,-6.34 1.06,-2.98 3.07,-5.18 2.02,-2.3 4.9,-3.55 2.88,-1.34 6.43,-1.34 7.1,0 11.04,3.84 4.03,3.84 4.03,10.37 0,2.98 -1.06,5.47 -1.06,2.4 -2.78,4.51 -1.63,2.11 -3.74,3.94 -2.11,1.82 -4.32,3.55 2.3,2.98 5.18,5.86 2.98,2.78 6.05,5.28 1.73,-3.07 3.07,-6.62 1.34,-3.55 2.21,-7.78 h 12.86 q -1.44,5.76 -3.55,11.04 -2.11,5.18 -5.18,10.08 4.9,3.07 8.74,3.94 l -3.36,11.42 q -6.53,-1.54 -13.25,-6.05 -3.55,2.78 -7.87,4.42 -4.22,1.63 -9.5,1.63 z m -2.4,-48.58 q 0,3.26 1.82,7.2 2.69,-1.92 4.42,-4.13 1.82,-2.21 1.82,-5.18 0,-2.21 -0.86,-3.55 -0.86,-1.34 -3.07,-1.34 -1.82,0 -2.98,1.92 -1.15,1.82 -1.15,5.09 z m 4.22,37.82 q 3.07,0 6.14,-2.21 -3.36,-2.88 -6.43,-6.05 -2.98,-3.26 -5.47,-6.72 -1.34,1.63 -2.11,3.36 -0.67,1.73 -0.67,3.65 0,3.55 2.3,5.76 2.4,2.21 6.24,2.21 z"/>
      <!-- C -->
      <path d="m 549.24,219.22 q -5.86,0 -11.14,-2.02 -5.18,-2.11 -9.22,-6.14 -3.94,-4.03 -6.34,-9.98 -2.3,-6.05 -2.3,-13.92 0,-7.78 2.3,-13.82 2.3,-6.14 6.34,-10.37 4.03,-4.22 9.5,-6.43 5.47,-2.21 11.71,-2.21 5.95,0 10.75,2.5 4.8,2.4 7.97,5.47 l -7.78,8.74 q -2.21,-2.02 -4.9,-3.26 -2.59,-1.25 -6.05,-1.25 -3.36,0 -6.14,1.44 -2.78,1.34 -4.9,3.94 -2.02,2.59 -3.17,6.34 -1.15,3.74 -1.15,8.45 0,9.7 4.42,15.07 4.42,5.28 11.52,5.28 3.36,0 6.14,-1.54 2.88,-1.54 5.18,-4.03 l 7.78,8.54 q -7.78,9.22 -20.54,9.22 z"/>
      <!-- r -->
      <path d="m 583.76,218.07 v -47.62 h 11.52 l 1.15,10.37 h 0.29 q 3.55,-5.86 8.54,-8.64 4.99,-2.88 10.75,-2.88 3.17,0 5.09,0.48 2.02,0.48 4.13,1.44 l -2.88,11.81 q -2.21,-0.67 -4.03,-0.96 -1.73,-0.38 -4.42,-0.38 -4.42,0 -8.74,2.59 -4.22,2.59 -7.3,9.02 v 24.77 z"/>
      <!-- a -->
      <path d="m 651.69,219.22 q -3.65,0 -6.53,-1.15 -2.88,-1.06 -4.9,-2.98 -2.02,-2.02 -3.17,-4.61 -1.06,-2.59 -1.06,-5.66 0,-4.03 1.73,-7.01 1.73,-3.07 5.47,-5.18 3.84,-2.11 9.79,-3.36 5.95,-1.34 14.4,-1.82 -0.38,-3.26 -2.88,-5.09 -2.4,-1.82 -7.3,-1.82 -3.46,0 -7.01,1.25 -3.46,1.15 -7.49,3.17 l -4.99,-9.22 q 4.9,-2.78 10.46,-4.61 5.66,-1.82 11.81,-1.82 9.98,0 15.74,5.28 5.76,5.28 5.76,16.22 v 27.26 h -11.52 l -1.06,-5.38 h -0.38 q -3.65,2.78 -7.97,4.7 -4.32,1.82 -8.93,1.82 z m 4.51,-10.94 q 3.17,0 5.95,-1.25 2.78,-1.34 5.28,-3.26 v -7.87 q -5.28,0.29 -8.74,0.96 -3.46,0.67 -5.47,1.73 -2.02,0.96 -2.88,2.3 -0.77,1.34 -0.77,2.88 0,2.3 1.73,3.46 1.82,1.06 4.9,1.06 z"/>
      <!-- f -->
      <path d="m 708.2,218.07 v -36.58 h -12.58 v -10.46 l 12.58,-0.58 v -1.25 q 0,-4.13 1.25,-7.68 1.25,-3.55 3.84,-6.14 2.59,-2.69 6.62,-4.22 4.03,-1.54 9.6,-1.54 4.13,0 7.68,0.77 3.65,0.77 6.72,1.82 l -2.69,10.37 q -4.7,-1.82 -9.98,-1.82 -4.61,0 -6.82,2.02 -2.11,2.02 -2.11,6.34 v 1.34 h 16.42 v 11.04 h -16.42 v 36.58 z"/>
      <!-- t -->
      <path d="m 688.50392,31.154297 -3.93555,11.248047 1.5332,2.851562 -2.52539,-0.08594 0.35156,0.652344 1.53516,2.851562 -2.60156,-0.08984 c 0.64819,1.205632 1.30446,2.426356 1.96875,3.66211 l -2.70313,-0.0918 0.12891,0.246094 0.36719,0.685547 1.5332,2.853515 -2.75195,-0.08203 c 0.14815,0.220347 0.22444,0.375036 0.33593,0.5625 l 1.50586,2.847656 -2.29687,-0.06445 c 0.09,0.20863 0.20856,0.40218 0.3125,0.603516 l 1.53125,2.853516 -2.36914,-0.08008 c 0.55922,1.038652 1.14307,2.126537 1.71484,3.189454 l -2.21094,-0.07617 0.75782,1.408203 1.09375,2.060547 c -0.77289,0.01051 -1.5043,-0.01488 -2.20704,-0.0293 l 0.22266,0.439453 1.48633,2.845703 -2.12109,-0.07813 c 0.52108,0.985965 1.14099,2.133914 1.70898,3.201172 l -2.04492,-0.09961 c 0.53623,1.093555 1.08045,2.172239 1.64844,3.240234 l -2.00196,-0.07031 -0.57226,3.134765 -12.48438,0.523438 V 92.73047 h 12 v 16.80078 c 0,3.136 0.35264,5.98492 1.05664,8.54492 0.704,2.56 1.85703,4.76705 3.45703,6.62305 1.664,1.792 3.80764,3.20061 6.43164,4.22461 2.62396,1.024 5.82361,1.53516 9.59961,1.53516 3.2,0 6.04697,-0.28729 8.54297,-0.86329 2.56,-0.512 4.89777,-1.08851 7.00977,-1.72851 l -2.4961,-10.17578 c -1.47196,0.512 -2.97767,0.92804 -4.51367,1.24804 -1.472,0.32 -3.10253,0.48047 -4.89453,0.48047 -3.52,0 -6.07969,-0.73698 -7.67969,-2.20898 -1.6,-1.536 -2.40039,-4.12739 -2.40039,-7.77539 V 92.73047 h 20.16016 V 81.691407 H 691.52735 V 67.09961 h -0.0195 l -0.0312,-35.945313 z" transform="translate(84.603678,88.762913)" />
      <!-- s -->
      <path d="m 831.29,219.22 q -6.43,0 -12.58,-2.11 -6.14,-2.11 -10.75,-5.18 l 6.05,-8.83 q 4.42,2.78 9.22,4.22 4.8,1.44 9.98,1.44 3.94,0 5.76,-1.15 1.82,-1.15 1.82,-2.88 0,-0.96 -0.58,-1.73 -0.48,-0.77 -1.82,-1.34 -1.25,-0.67 -3.55,-1.25 -2.3,-0.58 -5.76,-1.34 -9.7,-2.11 -13.92,-5.66 -4.22,-3.65 -4.22,-9.22 0,-3.26 1.54,-6.05 1.54,-2.78 4.32,-4.7 2.88,-1.92 6.91,-2.98 4.03,-1.15 9.12,-1.15 6.43,0 11.62,2.11 5.28,2.02 9.02,4.42 l -6.34,8.45 q -3.65,-2.21 -7.58,-3.36 -3.94,-1.15 -7.97,-1.15 -3.36,0 -4.99,1.06 -1.63,1.06 -1.63,2.69 0,2.02 2.5,2.88 2.5,0.86 8.54,2.21 5.47,1.25 9.12,2.69 3.65,1.44 5.76,3.26 2.11,1.82 2.98,4.13 0.86,2.3 0.86,5.18 0,3.26 -1.54,6.05 -1.54,2.78 -4.51,4.9 -2.88,2.02 -7.3,3.26 -4.32,1.15 -10.08,1.15 z"/>
    </g>
  </g>
</svg>
